<svg width="304" height="167" viewBox="0 0 304 167" fill="none" xmlns="http://www.w3.org/2000/svg">
<g filter="url(#filter0_d_30_1783)">
<rect x="4.67676" y="3.11792" width="294.638" height="157.232" rx="6.23572" fill="url(#paint0_linear_30_1783)"/>
</g>
<g opacity="0.5">
<path d="M19.1816 29.7007H19.2668V30.5373H19.1816C18.6594 30.5373 18.2225 30.6225 17.8708 30.793C17.5191 30.96 17.2403 31.1856 17.0342 31.4697C16.8282 31.7504 16.679 32.0665 16.5867 32.4182C16.4978 32.7699 16.4534 33.1269 16.4534 33.4892V34.6295C16.4534 34.974 16.4943 35.2795 16.576 35.5459C16.6577 35.8088 16.7696 36.0308 16.9117 36.212C17.0538 36.3932 17.2136 36.5299 17.3912 36.6223C17.5724 36.7146 17.7607 36.7608 17.956 36.7608C18.1834 36.7608 18.3859 36.7182 18.5635 36.6329C18.7411 36.5441 18.8903 36.4216 19.0111 36.2653C19.1354 36.1054 19.2295 35.9171 19.2935 35.7005C19.3574 35.4838 19.3894 35.2458 19.3894 34.9865C19.3894 34.7556 19.361 34.5335 19.3041 34.3204C19.2473 34.1037 19.1603 33.9119 19.043 33.7449C18.9258 33.5744 18.7784 33.4412 18.6008 33.3453C18.4267 33.2459 18.2189 33.1961 17.9774 33.1961C17.7038 33.1961 17.4481 33.2636 17.2101 33.3986C16.9756 33.53 16.782 33.7041 16.6293 33.9208C16.4801 34.1339 16.3948 34.3666 16.3735 34.6188L15.8513 34.6135C15.9011 34.2156 15.9934 33.8764 16.1284 33.5958C16.267 33.3116 16.4375 33.0807 16.6399 32.9031C16.846 32.7219 17.0751 32.5905 17.3273 32.5088C17.5831 32.4235 17.853 32.3809 18.1372 32.3809C18.5244 32.3809 18.8583 32.4537 19.1389 32.5993C19.4196 32.745 19.6505 32.9404 19.8316 33.1855C20.0128 33.427 20.146 33.7005 20.2313 34.006C20.3201 34.308 20.3645 34.6188 20.3645 34.9385C20.3645 35.3044 20.313 35.6472 20.21 35.9669C20.1069 36.2866 19.9524 36.5672 19.7464 36.8088C19.5439 37.0503 19.2935 37.2386 18.9951 37.3736C18.6967 37.5086 18.3503 37.576 17.956 37.576C17.5369 37.576 17.171 37.4908 16.8584 37.3203C16.5458 37.1462 16.2865 36.9153 16.0805 36.6276C15.8744 36.3399 15.7199 36.0202 15.6169 35.6685C15.5139 35.3168 15.4624 34.9598 15.4624 34.5975V34.1339C15.4624 33.5869 15.5174 33.0505 15.6275 32.5247C15.7377 31.999 15.9277 31.523 16.1977 31.0967C16.4712 30.6705 16.8495 30.3312 17.3326 30.079C17.8157 29.8268 18.4321 29.7007 19.1816 29.7007ZM26.4069 32.9723V34.1552C26.4069 34.7911 26.35 35.3275 26.2363 35.7644C26.1227 36.2013 25.9593 36.553 25.7461 36.8194C25.533 37.0858 25.2755 37.2794 24.9735 37.4002C24.6751 37.5174 24.3377 37.576 23.9611 37.576C23.6627 37.576 23.3874 37.5388 23.1352 37.4642C22.883 37.3896 22.6557 37.2706 22.4532 37.1072C22.2543 36.9402 22.0838 36.7235 21.9417 36.4571C21.7996 36.1907 21.6912 35.8674 21.6166 35.4873C21.542 35.1072 21.5047 34.6632 21.5047 34.1552V32.9723C21.5047 32.3365 21.5616 31.8036 21.6753 31.3738C21.7925 30.944 21.9577 30.5994 22.1708 30.3401C22.3839 30.0772 22.6397 29.889 22.9381 29.7753C23.24 29.6616 23.5775 29.6048 23.9505 29.6048C24.2524 29.6048 24.5295 29.6421 24.7817 29.7167C25.0375 29.7877 25.2648 29.9032 25.4637 30.063C25.6627 30.2193 25.8314 30.4289 25.9699 30.6918C26.112 30.9511 26.2204 31.269 26.295 31.6456C26.3696 32.0221 26.4069 32.4644 26.4069 32.9723ZM25.4158 34.3151V32.8072C25.4158 32.459 25.3945 32.1535 25.3518 31.8907C25.3128 31.6243 25.2541 31.3969 25.176 31.2086C25.0978 31.0204 24.9984 30.8676 24.8776 30.7504C24.7604 30.6332 24.6236 30.5479 24.4673 30.4946C24.3146 30.4378 24.1423 30.4094 23.9505 30.4094C23.716 30.4094 23.5082 30.4538 23.3271 30.5426C23.1459 30.6278 22.9931 30.7646 22.8688 30.9529C22.748 31.1411 22.6557 31.388 22.5917 31.6935C22.5278 31.999 22.4958 32.3702 22.4958 32.8072V34.3151C22.4958 34.6632 22.5154 34.9705 22.5544 35.2369C22.5971 35.5033 22.6592 35.7342 22.7409 35.9296C22.8226 36.1214 22.9221 36.2795 23.0393 36.4038C23.1565 36.5281 23.2915 36.6205 23.4443 36.6809C23.6006 36.7377 23.7729 36.7661 23.9611 36.7661C24.2027 36.7661 24.414 36.72 24.5952 36.6276C24.7764 36.5352 24.9273 36.3914 25.0481 36.196C25.1724 35.9971 25.2648 35.7431 25.3252 35.434C25.3856 35.1214 25.4158 34.7485 25.4158 34.3151Z" fill="white"/>
<path d="M20.6416 59.7667V60.5766H15.0361V59.9958L18.5102 54.6194H19.3148L18.4516 56.1753L16.1551 59.7667H20.6416ZM19.5599 54.6194V62.3776H18.5741V54.6194H19.5599ZM26.4069 57.8804V59.0633C26.4069 59.6992 26.35 60.2356 26.2363 60.6725C26.1227 61.1094 25.9593 61.4611 25.7461 61.7275C25.533 61.9939 25.2755 62.1875 24.9735 62.3083C24.6751 62.4255 24.3377 62.4841 23.9611 62.4841C23.6627 62.4841 23.3874 62.4468 23.1352 62.3722C22.883 62.2976 22.6557 62.1786 22.4532 62.0152C22.2543 61.8483 22.0838 61.6316 21.9417 61.3652C21.7996 61.0988 21.6912 60.7755 21.6166 60.3954C21.542 60.0153 21.5047 59.5713 21.5047 59.0633V57.8804C21.5047 57.2446 21.5616 56.7117 21.6753 56.2819C21.7925 55.8521 21.9577 55.5075 22.1708 55.2482C22.3839 54.9853 22.6397 54.7971 22.9381 54.6834C23.24 54.5697 23.5775 54.5129 23.9505 54.5129C24.2524 54.5129 24.5295 54.5502 24.7817 54.6248C25.0375 54.6958 25.2648 54.8113 25.4637 54.9711C25.6627 55.1274 25.8314 55.337 25.9699 55.5999C26.112 55.8592 26.2204 56.1771 26.295 56.5536C26.3696 56.9302 26.4069 57.3724 26.4069 57.8804ZM25.4158 59.2232V57.7152C25.4158 57.3671 25.3945 57.0616 25.3518 56.7988C25.3128 56.5323 25.2541 56.305 25.176 56.1167C25.0978 55.9285 24.9984 55.7757 24.8776 55.6585C24.7604 55.5413 24.6236 55.456 24.4673 55.4027C24.3146 55.3459 24.1423 55.3175 23.9505 55.3175C23.716 55.3175 23.5082 55.3619 23.3271 55.4507C23.1459 55.5359 22.9931 55.6727 22.8688 55.861C22.748 56.0492 22.6557 56.2961 22.5917 56.6016C22.5278 56.9071 22.4958 57.2783 22.4958 57.7152V59.2232C22.4958 59.5713 22.5154 59.8786 22.5544 60.145C22.5971 60.4114 22.6592 60.6423 22.7409 60.8377C22.8226 61.0295 22.9221 61.1876 23.0393 61.3119C23.1565 61.4362 23.2915 61.5286 23.4443 61.589C23.6006 61.6458 23.7729 61.6742 23.9611 61.6742C24.2027 61.6742 24.414 61.628 24.5952 61.5357C24.7764 61.4433 24.9273 61.2995 25.0481 61.1041C25.1724 60.9052 25.2648 60.6512 25.3252 60.3421C25.3856 60.0295 25.4158 59.6565 25.4158 59.2232Z" fill="white"/>
<path d="M20.4817 86.4759V87.2858H15.4038V86.5771L17.9454 83.7477C18.258 83.3996 18.4995 83.1048 18.6701 82.8632C18.8441 82.6181 18.9649 82.3996 19.0324 82.2078C19.1034 82.0125 19.1389 81.8135 19.1389 81.611C19.1389 81.3553 19.0857 81.1244 18.9791 80.9184C18.8761 80.7088 18.7233 80.5418 18.5209 80.4175C18.3184 80.2932 18.0733 80.231 17.7855 80.231C17.441 80.231 17.1532 80.2985 16.9223 80.4335C16.695 80.5649 16.5245 80.7496 16.4108 80.9876C16.2971 81.2256 16.2403 81.4991 16.2403 81.8082H15.2546C15.2546 81.3713 15.3505 80.9716 15.5423 80.6093C15.7341 80.247 16.0183 79.9592 16.3948 79.7461C16.7714 79.5294 17.2349 79.4211 17.7855 79.4211C18.2758 79.4211 18.6949 79.5081 19.043 79.6822C19.3912 79.8527 19.6576 80.0942 19.8423 80.4068C20.0306 80.7159 20.1247 81.0782 20.1247 81.4938C20.1247 81.7212 20.0856 81.9521 20.0075 82.1865C19.9329 82.4174 19.8281 82.6483 19.6931 82.8792C19.5617 83.1101 19.4071 83.3374 19.2295 83.5612C19.0555 83.785 18.869 84.0053 18.6701 84.222L16.592 86.4759H20.4817ZM26.4069 82.7886V83.9715C26.4069 84.6074 26.35 85.1438 26.2363 85.5807C26.1227 86.0176 25.9593 86.3693 25.7461 86.6357C25.533 86.9021 25.2755 87.0957 24.9735 87.2165C24.6751 87.3337 24.3377 87.3923 23.9611 87.3923C23.6627 87.3923 23.3874 87.355 23.1352 87.2804C22.883 87.2058 22.6557 87.0868 22.4532 86.9234C22.2543 86.7565 22.0838 86.5398 21.9417 86.2734C21.7996 86.007 21.6912 85.6837 21.6166 85.3036C21.542 84.9235 21.5047 84.4795 21.5047 83.9715V82.7886C21.5047 82.1528 21.5616 81.6199 21.6753 81.1901C21.7925 80.7603 21.9577 80.4157 22.1708 80.1564C22.3839 79.8935 22.6397 79.7053 22.9381 79.5916C23.24 79.4779 23.5775 79.4211 23.9505 79.4211C24.2524 79.4211 24.5295 79.4584 24.7817 79.533C25.0375 79.604 25.2648 79.7195 25.4637 79.8793C25.6627 80.0356 25.8314 80.2452 25.9699 80.5081C26.112 80.7674 26.2204 81.0853 26.295 81.4619C26.3696 81.8384 26.4069 82.2806 26.4069 82.7886ZM25.4158 84.1314V82.6234C25.4158 82.2753 25.3945 81.9698 25.3518 81.707C25.3128 81.4405 25.2541 81.2132 25.176 81.0249C25.0978 80.8367 24.9984 80.6839 24.8776 80.5667C24.7604 80.4495 24.6236 80.3642 24.4673 80.3109C24.3146 80.2541 24.1423 80.2257 23.9505 80.2257C23.716 80.2257 23.5082 80.2701 23.3271 80.3589C23.1459 80.4441 22.9931 80.5809 22.8688 80.7692C22.748 80.9574 22.6557 81.2043 22.5917 81.5098C22.5278 81.8153 22.4958 82.1865 22.4958 82.6234V84.1314C22.4958 84.4795 22.5154 84.7868 22.5544 85.0532C22.5971 85.3196 22.6592 85.5505 22.7409 85.7459C22.8226 85.9377 22.9221 86.0958 23.0393 86.2201C23.1565 86.3444 23.2915 86.4368 23.4443 86.4972C23.6006 86.554 23.7729 86.5824 23.9611 86.5824C24.2027 86.5824 24.414 86.5362 24.5952 86.4439C24.7764 86.3515 24.9273 86.2077 25.0481 86.0123C25.1724 85.8134 25.2648 85.5594 25.3252 85.2503C25.3856 84.9377 25.4158 84.5647 25.4158 84.1314Z" fill="white"/>
<path d="M26.6427 107.697V108.88C26.6427 109.515 26.5859 110.052 26.4722 110.489C26.3585 110.926 26.1951 111.277 25.982 111.544C25.7688 111.81 25.5113 112.004 25.2094 112.125C24.911 112.242 24.5735 112.3 24.197 112.3C23.8986 112.3 23.6233 112.263 23.3711 112.189C23.1189 112.114 22.8915 111.995 22.689 111.832C22.4901 111.665 22.3196 111.448 22.1775 111.181C22.0354 110.915 21.9271 110.592 21.8525 110.212C21.7779 109.832 21.7406 109.388 21.7406 108.88V107.697C21.7406 107.061 21.7974 106.528 21.9111 106.098C22.0283 105.668 22.1935 105.324 22.4066 105.064C22.6198 104.802 22.8755 104.613 23.1739 104.5C23.4759 104.386 23.8133 104.329 24.1863 104.329C24.4883 104.329 24.7653 104.366 25.0175 104.441C25.2733 104.512 25.5006 104.628 25.6996 104.787C25.8985 104.944 26.0672 105.153 26.2058 105.416C26.3479 105.675 26.4562 105.993 26.5308 106.37C26.6054 106.746 26.6427 107.189 26.6427 107.697ZM25.6516 109.039V107.532C25.6516 107.183 25.6303 106.878 25.5877 106.615C25.5486 106.349 25.49 106.121 25.4118 105.933C25.3337 105.745 25.2342 105.592 25.1134 105.475C24.9962 105.358 24.8595 105.272 24.7032 105.219C24.5504 105.162 24.3781 105.134 24.1863 105.134C23.9519 105.134 23.7441 105.178 23.5629 105.267C23.3817 105.352 23.229 105.489 23.1047 105.677C22.9839 105.866 22.8915 106.112 22.8276 106.418C22.7636 106.723 22.7317 107.095 22.7317 107.532V109.039C22.7317 109.388 22.7512 109.695 22.7903 109.961C22.8329 110.228 22.8951 110.459 22.9768 110.654C23.0585 110.846 23.1579 111.004 23.2752 111.128C23.3924 111.253 23.5274 111.345 23.6801 111.405C23.8364 111.462 24.0087 111.491 24.197 111.491C24.4385 111.491 24.6499 111.444 24.831 111.352C25.0122 111.26 25.1632 111.116 25.284 110.92C25.4083 110.721 25.5006 110.467 25.561 110.158C25.6214 109.846 25.6516 109.473 25.6516 109.039Z" fill="white"/>
<path d="M49.7886 124.674H50.785L53.3267 130.998L55.863 124.674H56.8647L53.7103 132.432H52.9324L49.7886 124.674ZM49.4636 124.674H50.3428L50.4866 129.405V132.432H49.4636V124.674ZM56.3052 124.674H57.1844V132.432H56.1614V129.405L56.3052 124.674Z" fill="white"/>
<path d="M92.0911 124.674V132.432H91.0787V124.674H92.0911ZM94.5848 124.674V125.515H88.5904V124.674H94.5848Z" fill="white"/>
<path d="M127.812 130.087L129.352 124.674H130.098L129.667 126.778L128.01 132.432H127.269L127.812 130.087ZM126.219 124.674L127.445 129.981L127.812 132.432H127.077L125.196 124.674H126.219ZM132.091 129.975L133.29 124.674H134.318L132.443 132.432H131.707L132.091 129.975ZM130.21 124.674L131.707 130.087L132.251 132.432H131.51L129.912 126.778L129.475 124.674H130.21Z" fill="white"/>
<path d="M168.479 124.674V132.432H167.466V124.674H168.479ZM170.972 124.674V125.515H164.978V124.674H170.972Z" fill="white"/>
<path d="M203.515 124.674V132.432H202.487V124.674H203.515ZM206.765 128.164V129.005H203.291V128.164H206.765ZM207.293 124.674V125.515H203.291V124.674H207.293Z" fill="white"/>
<path d="M242.253 130.471C242.253 130.29 242.225 130.13 242.168 129.991C242.114 129.849 242.018 129.721 241.88 129.608C241.745 129.494 241.557 129.386 241.315 129.283C241.077 129.18 240.775 129.075 240.409 128.968C240.026 128.855 239.679 128.728 239.37 128.59C239.061 128.448 238.797 128.286 238.576 128.105C238.356 127.924 238.187 127.716 238.07 127.482C237.953 127.247 237.894 126.979 237.894 126.677C237.894 126.375 237.956 126.096 238.081 125.84C238.205 125.585 238.383 125.363 238.614 125.174C238.848 124.983 239.127 124.833 239.45 124.727C239.773 124.62 240.134 124.567 240.532 124.567C241.114 124.567 241.608 124.679 242.013 124.903C242.422 125.123 242.732 125.412 242.946 125.771C243.159 126.126 243.265 126.506 243.265 126.911H242.242C242.242 126.62 242.18 126.363 242.056 126.139C241.931 125.911 241.743 125.734 241.491 125.606C241.239 125.475 240.919 125.409 240.532 125.409C240.166 125.409 239.864 125.464 239.626 125.574C239.388 125.684 239.21 125.833 239.093 126.022C238.98 126.21 238.923 126.425 238.923 126.666C238.923 126.83 238.956 126.979 239.024 127.114C239.095 127.245 239.203 127.368 239.349 127.482C239.498 127.595 239.686 127.7 239.914 127.796C240.145 127.892 240.42 127.984 240.74 128.073C241.18 128.197 241.56 128.336 241.88 128.489C242.2 128.641 242.463 128.814 242.669 129.005C242.878 129.194 243.033 129.409 243.132 129.65C243.235 129.888 243.287 130.158 243.287 130.46C243.287 130.776 243.223 131.062 243.095 131.318C242.967 131.574 242.784 131.792 242.546 131.973C242.308 132.155 242.022 132.295 241.688 132.394C241.358 132.49 240.988 132.538 240.58 132.538C240.221 132.538 239.868 132.488 239.519 132.389C239.175 132.29 238.861 132.14 238.576 131.941C238.296 131.743 238.07 131.497 237.9 131.206C237.733 130.911 237.649 130.57 237.649 130.183H238.672C238.672 130.449 238.724 130.679 238.827 130.87C238.93 131.059 239.07 131.215 239.248 131.339C239.429 131.464 239.633 131.556 239.86 131.616C240.091 131.673 240.331 131.702 240.58 131.702C240.939 131.702 241.242 131.652 241.491 131.552C241.74 131.453 241.928 131.311 242.056 131.126C242.187 130.941 242.253 130.723 242.253 130.471Z" fill="white"/>
<path d="M278.888 130.471C278.888 130.29 278.86 130.13 278.803 129.991C278.75 129.849 278.654 129.721 278.515 129.608C278.38 129.494 278.192 129.386 277.95 129.283C277.712 129.18 277.41 129.075 277.045 128.968C276.661 128.855 276.315 128.728 276.006 128.59C275.696 128.448 275.432 128.286 275.212 128.105C274.991 127.924 274.823 127.716 274.705 127.482C274.588 127.247 274.53 126.979 274.53 126.677C274.53 126.375 274.592 126.096 274.716 125.84C274.84 125.585 275.018 125.363 275.249 125.174C275.483 124.983 275.762 124.833 276.085 124.727C276.409 124.62 276.769 124.567 277.167 124.567C277.75 124.567 278.243 124.679 278.648 124.903C279.057 125.123 279.368 125.412 279.581 125.771C279.794 126.126 279.901 126.506 279.901 126.911H278.878C278.878 126.62 278.815 126.363 278.691 126.139C278.567 125.911 278.378 125.734 278.126 125.606C277.874 125.475 277.554 125.409 277.167 125.409C276.801 125.409 276.499 125.464 276.261 125.574C276.023 125.684 275.846 125.833 275.728 126.022C275.615 126.21 275.558 126.425 275.558 126.666C275.558 126.83 275.592 126.979 275.659 127.114C275.73 127.245 275.839 127.368 275.984 127.482C276.133 127.595 276.322 127.7 276.549 127.796C276.78 127.892 277.055 127.984 277.375 128.073C277.815 128.197 278.196 128.336 278.515 128.489C278.835 128.641 279.098 128.814 279.304 129.005C279.513 129.194 279.668 129.409 279.767 129.65C279.87 129.888 279.922 130.158 279.922 130.46C279.922 130.776 279.858 131.062 279.73 131.318C279.602 131.574 279.419 131.792 279.181 131.973C278.943 132.155 278.657 132.295 278.323 132.394C277.993 132.49 277.624 132.538 277.215 132.538C276.856 132.538 276.503 132.488 276.155 132.389C275.81 132.29 275.496 132.14 275.212 131.941C274.931 131.743 274.705 131.497 274.535 131.206C274.368 130.911 274.284 130.57 274.284 130.183H275.308C275.308 130.449 275.359 130.679 275.462 130.87C275.565 131.059 275.705 131.215 275.883 131.339C276.064 131.464 276.268 131.556 276.496 131.616C276.727 131.673 276.966 131.702 277.215 131.702C277.574 131.702 277.878 131.652 278.126 131.552C278.375 131.453 278.563 131.311 278.691 131.126C278.822 130.941 278.888 130.723 278.888 130.471Z" fill="white"/>
</g>
<g opacity="0.5">
<rect x="33.9066" y="35.4212" width="255.665" height="76.28" stroke="white" stroke-width="0.779465" stroke-dasharray="3.12 3.12"/>
<path d="M33.9067 86.0153H289.571" stroke="white" stroke-width="0.779465" stroke-dasharray="3.12 3.12"/>
<path d="M33.9067 60.718H289.571" stroke="white" stroke-width="0.779465" stroke-dasharray="3.12 3.12"/>
<path d="M70.9312 112.091L70.9312 36.5882" stroke="white" stroke-width="0.779465" stroke-dasharray="3.12 3.12"/>
<path d="M108.346 112.091L108.346 36.5882" stroke="white" stroke-width="0.779465" stroke-dasharray="3.12 3.12"/>
<path d="M145.76 112.091L145.76 36.5882" stroke="white" stroke-width="0.779465" stroke-dasharray="3.12 3.12"/>
<path d="M183.174 112.091L183.174 36.5882" stroke="white" stroke-width="0.779465" stroke-dasharray="3.12 3.12"/>
<path d="M220.589 112.091L220.589 36.5882" stroke="white" stroke-width="0.779465" stroke-dasharray="3.12 3.12"/>
<path d="M258.003 112.091L258.003 36.5882" stroke="white" stroke-width="0.779465" stroke-dasharray="3.12 3.12"/>
</g>
<rect x="50.665" y="35.0315" width="4.67679" height="76.2811" rx="2.3384" fill="white"/>
<rect x="88.0796" y="81.5443" width="4.67679" height="29.7682" rx="2.3384" fill="white"/>
<rect x="125.494" y="94.5679" width="4.67679" height="16.7446" rx="2.3384" fill="white"/>
<rect x="162.908" y="77.8232" width="4.67679" height="33.4893" rx="2.3384" fill="white"/>
<rect x="200.323" y="35.0315" width="4.67679" height="76.2811" rx="2.3384" fill="white"/>
<rect x="237.737" y="96.4286" width="4.67679" height="14.8841" rx="2.3384" fill="white"/>
<rect x="275.151" y="50.8458" width="4.67679" height="60.4667" rx="2.3384" fill="white"/>
<defs>
<filter id="filter0_d_30_1783" x="-3.43323e-05" y="5.85318e-05" width="303.992" height="166.586" filterUnits="userSpaceOnUse" color-interpolation-filters="sRGB">
<feFlood flood-opacity="0" result="BackgroundImageFix"/>
<feColorMatrix in="SourceAlpha" type="matrix" values="0 0 0 0 0 0 0 0 0 0 0 0 0 0 0 0 0 0 127 0" result="hardAlpha"/>
<feOffset dy="1.55893"/>
<feGaussianBlur stdDeviation="2.3384"/>
<feComposite in2="hardAlpha" operator="out"/>
<feColorMatrix type="matrix" values="0 0 0 0 0.862745 0 0 0 0 0.133333 0 0 0 0 0.396078 0 0 0 0.36 0"/>
<feBlend mode="normal" in2="BackgroundImageFix" result="effect1_dropShadow_30_1783"/>
<feBlend mode="normal" in="SourceGraphic" in2="effect1_dropShadow_30_1783" result="shape"/>
</filter>
<linearGradient id="paint0_linear_30_1783" x1="151.996" y1="3.11792" x2="151.996" y2="160.35" gradientUnits="userSpaceOnUse">
<stop stop-color="#E93B77"/>
<stop offset="1" stop-color="#DA1F63"/>
</linearGradient>
</defs>
</svg>
