<svg width="22" height="22" viewBox="0 0 22 22" fill="none" xmlns="http://www.w3.org/2000/svg">
<path d="M2.37446 18.9956H4.06626L15.6714 7.39049L13.9796 5.69869L2.37446 17.3039V18.9956ZM0 21.3701V16.3244L15.6714 0.682656C15.9089 0.464998 16.1712 0.296807 16.4585 0.178084C16.7458 0.0593615 17.0474 0 17.3632 0C17.679 0 17.9857 0.0593615 18.2833 0.178084C18.5809 0.296807 18.8381 0.474891 19.055 0.712337L20.6874 2.37446C20.9249 2.59211 21.0982 2.84935 21.2074 3.14615C21.3167 3.44296 21.3709 3.73977 21.3701 4.03658C21.3701 4.35317 21.3159 4.65512 21.2074 4.94243C21.099 5.22974 20.9257 5.49172 20.6874 5.72837L5.04572 21.3701H0ZM14.8107 6.55943L13.9796 5.69869L15.6714 7.39049L14.8107 6.55943Z" fill="white"/>
</svg>
