<svg width="33" height="33" viewBox="0 0 33 33" fill="none" xmlns="http://www.w3.org/2000/svg">
<g filter="url(#filter0_d_27_1571)">
<rect x="4.41699" y="1.60596" width="24.0909" height="24.0909" rx="9.63636" fill="white"/>
</g>
<path d="M11.0837 12.939H15.0837C15.2605 12.939 15.43 12.8688 15.5551 12.7438C15.6801 12.6188 15.7503 12.4492 15.7503 12.2724V8.27238C15.7503 8.09557 15.6801 7.926 15.5551 7.80098C15.43 7.67595 15.2605 7.60571 15.0837 7.60571H11.0837C10.9068 7.60571 10.7373 7.67595 10.6123 7.80098C10.4872 7.926 10.417 8.09557 10.417 8.27238V12.2724C10.417 12.4492 10.4872 12.6188 10.6123 12.7438C10.7373 12.8688 10.9068 12.939 11.0837 12.939ZM17.7503 12.939H21.7503C21.9271 12.939 22.0967 12.8688 22.2217 12.7438C22.3468 12.6188 22.417 12.4492 22.417 12.2724V8.27238C22.417 8.09557 22.3468 7.926 22.2217 7.80098C22.0967 7.67595 21.9271 7.60571 21.7503 7.60571H17.7503C17.5735 7.60571 17.4039 7.67595 17.2789 7.80098C17.1539 7.926 17.0837 8.09557 17.0837 8.27238V12.2724C17.0837 12.4492 17.1539 12.6188 17.2789 12.7438C17.4039 12.8688 17.5735 12.939 17.7503 12.939ZM11.0837 19.6057H15.0837C15.2605 19.6057 15.43 19.5355 15.5551 19.4105C15.6801 19.2854 15.7503 19.1159 15.7503 18.939V14.939C15.7503 14.7622 15.6801 14.5927 15.5551 14.4676C15.43 14.3426 15.2605 14.2724 15.0837 14.2724H11.0837C10.9068 14.2724 10.7373 14.3426 10.6123 14.4676C10.4872 14.5927 10.417 14.7622 10.417 14.939V18.939C10.417 19.1159 10.4872 19.2854 10.6123 19.4105C10.7373 19.5355 10.9068 19.6057 11.0837 19.6057ZM19.7503 19.6057C21.221 19.6057 22.417 18.4097 22.417 16.939C22.417 15.4684 21.221 14.2724 19.7503 14.2724C18.2797 14.2724 17.0837 15.4684 17.0837 16.939C17.0837 18.4097 18.2797 19.6057 19.7503 19.6057Z" fill="#21063D"/>
<defs>
<filter id="filter0_d_27_1571" x="0.000325203" y="-0.000103712" width="32.9242" height="32.9242" filterUnits="userSpaceOnUse" color-interpolation-filters="sRGB">
<feFlood flood-opacity="0" result="BackgroundImageFix"/>
<feColorMatrix in="SourceAlpha" type="matrix" values="0 0 0 0 0 0 0 0 0 0 0 0 0 0 0 0 0 0 127 0" result="hardAlpha"/>
<feOffset dy="2.81061"/>
<feGaussianBlur stdDeviation="2.20833"/>
<feColorMatrix type="matrix" values="0 0 0 0 0 0 0 0 0 0 0 0 0 0 0 0 0 0 0.02 0"/>
<feBlend mode="normal" in2="BackgroundImageFix" result="effect1_dropShadow_27_1571"/>
<feBlend mode="normal" in="SourceGraphic" in2="effect1_dropShadow_27_1571" result="shape"/>
</filter>
</defs>
</svg>
