<svg width="33" height="33" viewBox="0 0 33 33" fill="none" xmlns="http://www.w3.org/2000/svg">
<g filter="url(#filter0_d_27_1651)">
<rect x="4.41699" y="1.60596" width="24.0909" height="24.0909" rx="9.63636" fill="white"/>
</g>
<path d="M18.2645 9.14832C17.8066 8.65403 17.1672 8.38184 16.4614 8.38184C15.7519 8.38184 15.1103 8.65239 14.6546 9.14362C14.1939 9.64026 13.9695 10.3152 14.0222 11.0441C14.1267 12.482 15.2209 13.6517 16.4614 13.6517C17.7019 13.6517 18.7943 12.4822 18.9004 11.0445C18.9538 10.3223 18.7279 9.64873 18.2645 9.14832Z" fill="#1B0333"/>
<path d="M20.6016 18.9211H12.3204C12.212 18.9225 12.1046 18.8997 12.0061 18.8544C11.9076 18.8091 11.8205 18.7425 11.751 18.6592C11.5981 18.4765 11.5365 18.2268 11.5821 17.9744C11.7807 16.8729 12.4003 15.9476 13.3743 15.2981C14.2396 14.7214 15.3357 14.4041 16.461 14.4041C17.5862 14.4041 18.6823 14.7217 19.5476 15.2981C20.5216 15.9474 21.1413 16.8727 21.3399 17.9742C21.3855 18.2266 21.3239 18.4762 21.1709 18.659C21.1015 18.7423 21.0143 18.809 20.9159 18.8543C20.8174 18.8997 20.71 18.9225 20.6016 18.9211Z" fill="#1B0333"/>
<defs>
<filter id="filter0_d_27_1651" x="0.000325203" y="-0.000103712" width="32.9242" height="32.9242" filterUnits="userSpaceOnUse" color-interpolation-filters="sRGB">
<feFlood flood-opacity="0" result="BackgroundImageFix"/>
<feColorMatrix in="SourceAlpha" type="matrix" values="0 0 0 0 0 0 0 0 0 0 0 0 0 0 0 0 0 0 127 0" result="hardAlpha"/>
<feOffset dy="2.81061"/>
<feGaussianBlur stdDeviation="2.20833"/>
<feColorMatrix type="matrix" values="0 0 0 0 0 0 0 0 0 0 0 0 0 0 0 0 0 0 0.02 0"/>
<feBlend mode="normal" in2="BackgroundImageFix" result="effect1_dropShadow_27_1651"/>
<feBlend mode="normal" in="SourceGraphic" in2="effect1_dropShadow_27_1651" result="shape"/>
</filter>
</defs>
</svg>
