<svg width="33" height="33" viewBox="0 0 33 33" fill="none" xmlns="http://www.w3.org/2000/svg">
<g filter="url(#filter0_d_27_1347)">
<rect x="4.41699" y="1.60596" width="24.0909" height="24.0909" rx="9.63636" fill="white"/>
</g>
<g clip-path="url(#clip0_27_1347)">
<path d="M20.486 12.8759H17.1923C16.8928 12.8759 16.6056 12.757 16.3938 12.5452C16.182 12.3334 16.063 12.0462 16.063 11.7467V8.45299C16.063 8.42803 16.0531 8.4041 16.0355 8.38645C16.0178 8.3688 15.9939 8.35889 15.9689 8.35889H13.8045C13.4052 8.35889 13.0222 8.51752 12.7398 8.79989C12.4575 9.08226 12.2988 9.46524 12.2988 9.86457V17.393C12.2988 17.7923 12.4575 18.1753 12.7398 18.4577C13.0222 18.74 13.4052 18.8987 13.8045 18.8987H19.0744C19.4737 18.8987 19.8567 18.74 20.1391 18.4577C20.4214 18.1753 20.5801 17.7923 20.5801 17.393V12.97C20.5801 12.9451 20.5702 12.9211 20.5525 12.9035C20.5349 12.8858 20.5109 12.8759 20.486 12.8759Z" fill="#1B0333"/>
<path d="M20.2799 12.0435L16.8966 8.66017C16.8901 8.65363 16.8817 8.64918 16.8726 8.64738C16.8635 8.64558 16.8541 8.64651 16.8455 8.65005C16.8369 8.6536 16.8296 8.6596 16.8244 8.6673C16.8192 8.675 16.8164 8.68406 16.8164 8.69334V11.7473C16.8164 11.8471 16.8561 11.9429 16.9267 12.0135C16.9972 12.084 17.093 12.1237 17.1928 12.1237H20.2468C20.2561 12.1237 20.2651 12.1209 20.2728 12.1157C20.2805 12.1105 20.2865 12.1032 20.2901 12.0946C20.2936 12.0861 20.2945 12.0766 20.2927 12.0675C20.2909 12.0584 20.2865 12.0501 20.2799 12.0435Z" fill="#1B0333"/>
</g>
<defs>
<filter id="filter0_d_27_1347" x="0.000325203" y="-0.000103712" width="32.9242" height="32.9242" filterUnits="userSpaceOnUse" color-interpolation-filters="sRGB">
<feFlood flood-opacity="0" result="BackgroundImageFix"/>
<feColorMatrix in="SourceAlpha" type="matrix" values="0 0 0 0 0 0 0 0 0 0 0 0 0 0 0 0 0 0 127 0" result="hardAlpha"/>
<feOffset dy="2.81061"/>
<feGaussianBlur stdDeviation="2.20833"/>
<feColorMatrix type="matrix" values="0 0 0 0 0 0 0 0 0 0 0 0 0 0 0 0 0 0 0.02 0"/>
<feBlend mode="normal" in2="BackgroundImageFix" result="effect1_dropShadow_27_1347"/>
<feBlend mode="normal" in="SourceGraphic" in2="effect1_dropShadow_27_1347" result="shape"/>
</filter>
<clipPath id="clip0_27_1347">
<rect width="12.0455" height="12.0455" fill="white" transform="translate(10.417 7.60596)"/>
</clipPath>
</defs>
</svg>
