<svg width="33" height="33" viewBox="0 0 33 33" fill="none" xmlns="http://www.w3.org/2000/svg">
<g filter="url(#filter0_d_27_1717)">
<rect x="4.41699" y="1.60596" width="24.0909" height="24.0909" rx="9.63636" fill="white"/>
</g>
<g clip-path="url(#clip0_27_1717)">
<path d="M21.6756 8.22492C21.6713 8.20411 21.6611 8.18496 21.6463 8.16971C21.6316 8.15446 21.6127 8.14374 21.5921 8.13881C20.2141 7.80191 17.0303 9.00246 15.3054 10.7267C14.9977 11.0319 14.7172 11.3633 14.4671 11.7172C13.9352 11.6701 13.4033 11.7094 12.9499 11.907C11.6708 12.47 11.2984 13.939 11.1946 14.5709C11.1887 14.6055 11.191 14.641 11.2011 14.6745C11.2113 14.7081 11.2291 14.7389 11.2531 14.7644C11.2772 14.79 11.3068 14.8096 11.3397 14.8217C11.3727 14.8339 11.4079 14.8382 11.4428 14.8344L13.4969 14.6078C13.4984 14.7627 13.5077 14.9174 13.5249 15.0713C13.5352 15.1782 13.5827 15.2781 13.659 15.3536L14.4544 16.1472C14.53 16.2234 14.6299 16.2708 14.7367 16.2813C14.8898 16.2984 15.0436 16.3077 15.1976 16.3092L14.9722 18.3607C14.9685 18.3956 14.9728 18.4309 14.985 18.4638C14.9972 18.4967 15.0168 18.5263 15.0423 18.5503C15.0678 18.5744 15.0986 18.5922 15.1321 18.6024C15.1657 18.6125 15.2011 18.6148 15.2357 18.6089C15.8665 18.5078 17.338 18.1354 17.8977 16.8562C18.0953 16.4029 18.1358 15.8735 18.0902 15.3442C18.4449 15.0941 18.7772 14.8135 19.0832 14.5057C20.8136 12.7841 22.0073 9.67131 21.6756 8.22492ZM17.3569 12.4519C17.1989 12.294 17.0912 12.0928 17.0476 11.8737C17.004 11.6546 17.0263 11.4275 17.1117 11.2211C17.1972 11.0147 17.3419 10.8383 17.5276 10.7142C17.7134 10.5901 17.9317 10.5239 18.1551 10.5239C18.3785 10.5239 18.5968 10.5901 18.7826 10.7142C18.9683 10.8383 19.113 11.0147 19.1985 11.2211C19.2839 11.4275 19.3062 11.6546 19.2626 11.8737C19.219 12.0928 19.1114 12.294 18.9533 12.4519C18.8486 12.5568 18.7241 12.64 18.5872 12.6968C18.4502 12.7536 18.3034 12.7829 18.1551 12.7829C18.0068 12.7829 17.86 12.7536 17.723 12.6968C17.5861 12.64 17.4616 12.5568 17.3569 12.4519Z" fill="#1B0333"/>
<path d="M14.3999 16.722C14.271 16.8512 14.0642 16.9015 13.8153 16.9446C13.2561 17.0398 12.7623 16.5566 12.8627 15.9913C12.9011 15.777 13.0145 15.4765 13.0851 15.4059C13.1005 15.3908 13.1108 15.3712 13.1144 15.3499C13.1181 15.3286 13.1149 15.3067 13.1054 15.2873C13.0959 15.2679 13.0805 15.252 13.0615 15.2418C13.0424 15.2317 13.0206 15.2278 12.9992 15.2307C12.6865 15.2689 12.3955 15.4107 12.1727 15.6334C11.6196 16.187 11.5674 18.2411 11.5674 18.2411C11.5674 18.2411 13.6226 18.1889 14.1757 17.6353C14.3992 17.4127 14.5411 17.1213 14.5787 16.8081C14.5875 16.7098 14.4677 16.6512 14.3999 16.722Z" fill="#1B0333"/>
</g>
<defs>
<filter id="filter0_d_27_1717" x="0.000325203" y="-0.000103712" width="32.9242" height="32.9242" filterUnits="userSpaceOnUse" color-interpolation-filters="sRGB">
<feFlood flood-opacity="0" result="BackgroundImageFix"/>
<feColorMatrix in="SourceAlpha" type="matrix" values="0 0 0 0 0 0 0 0 0 0 0 0 0 0 0 0 0 0 127 0" result="hardAlpha"/>
<feOffset dy="2.81061"/>
<feGaussianBlur stdDeviation="2.20833"/>
<feColorMatrix type="matrix" values="0 0 0 0 0 0 0 0 0 0 0 0 0 0 0 0 0 0 0.02 0"/>
<feBlend mode="normal" in2="BackgroundImageFix" result="effect1_dropShadow_27_1717"/>
<feBlend mode="normal" in="SourceGraphic" in2="effect1_dropShadow_27_1717" result="shape"/>
</filter>
<clipPath id="clip0_27_1717">
<rect width="12.0455" height="12.0455" fill="white" transform="translate(10.4385 7.32422)"/>
</clipPath>
</defs>
</svg>
