<svg width="25" height="25" viewBox="0 0 25 25" fill="none" xmlns="http://www.w3.org/2000/svg">
<path d="M0 9.63637C0 4.31436 4.31435 0 9.63636 0H14.4545C19.7766 0 24.0909 4.31435 24.0909 9.63636V14.4545C24.0909 19.7766 19.7766 24.0909 14.4545 24.0909H9.63637C4.31436 24.0909 0 19.7766 0 14.4545V9.63637Z" fill="white"/>
<g clip-path="url(#clip0_25_1281)">
<path d="M12.1746 8.40597C12.1396 8.37246 12.093 8.35376 12.0445 8.35376C11.996 8.35376 11.9494 8.37246 11.9144 8.40597L7.58323 12.5435C7.56484 12.5611 7.5502 12.5823 7.54021 12.6057C7.53023 12.6291 7.52509 12.6543 7.52512 12.6797L7.52441 16.563C7.52441 16.7627 7.60373 16.9541 7.74492 17.0953C7.8861 17.2365 8.07759 17.3158 8.27725 17.3158H10.5381C10.638 17.3158 10.7337 17.2762 10.8043 17.2056C10.8749 17.135 10.9145 17.0392 10.9145 16.9394V13.7398C10.9145 13.6899 10.9344 13.6421 10.9697 13.6068C11.005 13.5715 11.0528 13.5516 11.1028 13.5516H12.9849C13.0348 13.5516 13.0827 13.5715 13.1179 13.6068C13.1532 13.6421 13.1731 13.6899 13.1731 13.7398V16.9394C13.1731 17.0392 13.2127 17.135 13.2833 17.2056C13.3539 17.2762 13.4497 17.3158 13.5495 17.3158H15.8094C16.0091 17.3158 16.2006 17.2365 16.3418 17.0953C16.4829 16.9541 16.5623 16.7627 16.5623 16.563V12.6797C16.5623 12.6543 16.5572 12.6291 16.5472 12.6057C16.5372 12.5823 16.5226 12.5611 16.5042 12.5435L12.1746 8.40597Z" fill="#1B0333"/>
<path d="M17.5713 11.7675L15.8115 10.0839V7.52921C15.8115 7.42938 15.7719 7.33363 15.7013 7.26304C15.6307 7.19245 15.535 7.15279 15.4351 7.15279H14.3059C14.206 7.15279 14.1103 7.19245 14.0397 7.26304C13.9691 7.33363 13.9294 7.42938 13.9294 7.52921V8.28205L12.5668 6.97916C12.4393 6.85024 12.2497 6.77637 12.0448 6.77637C11.8405 6.77637 11.6514 6.85024 11.5239 6.9794L6.51984 11.767C6.37351 11.9082 6.35516 12.1404 6.48832 12.2933C6.52175 12.3319 6.5627 12.3633 6.60865 12.3855C6.65461 12.4078 6.70462 12.4205 6.75563 12.4228C6.80665 12.4252 6.8576 12.4171 6.9054 12.3991C6.9532 12.3811 6.99683 12.3536 7.03366 12.3182L11.9154 7.65343C11.9504 7.61992 11.997 7.60122 12.0455 7.60122C12.0939 7.60122 12.1405 7.61992 12.1756 7.65343L17.0577 12.3182C17.1296 12.3872 17.226 12.4248 17.3256 12.4229C17.4252 12.4209 17.52 12.3796 17.5892 12.3079C17.7336 12.1582 17.7216 11.9112 17.5713 11.7675Z" fill="#1B0333"/>
</g>
<defs>
<clipPath id="clip0_25_1281">
<rect width="12.0455" height="12.0455" fill="white" transform="translate(6.02148 6.02295)"/>
</clipPath>
</defs>
</svg>
