<svg width="33" height="33" viewBox="0 0 33 33" fill="none" xmlns="http://www.w3.org/2000/svg">
<g filter="url(#filter0_d_27_1413)">
<rect x="4.41699" y="1.60596" width="24.0909" height="24.0909" rx="9.63636" fill="white"/>
</g>
<g clip-path="url(#clip0_27_1413)">
<path d="M12.3477 19.395H11.5949C11.4452 19.395 11.3015 19.3355 11.1956 19.2296C11.0898 19.1237 11.0303 18.9801 11.0303 18.8303V15.4426C11.0303 15.2928 11.0898 15.1492 11.1956 15.0433C11.3015 14.9374 11.4452 14.8779 11.5949 14.8779H12.3477C12.4975 14.8779 12.6411 14.9374 12.747 15.0433C12.8529 15.1492 12.9124 15.2928 12.9124 15.4426V18.8303C12.9124 18.9801 12.8529 19.1237 12.747 19.2296C12.6411 19.3355 12.4975 19.395 12.3477 19.395Z" fill="#1B0333"/>
<path d="M17.6183 19.3942H16.8654C16.7157 19.3942 16.572 19.3347 16.4662 19.2288C16.3603 19.123 16.3008 18.9793 16.3008 18.8296V13.1833C16.3008 13.0335 16.3603 12.8899 16.4662 12.784C16.572 12.6781 16.7157 12.6187 16.8654 12.6187H17.6183C17.768 12.6187 17.9116 12.6781 18.0175 12.784C18.1234 12.8899 18.1829 13.0335 18.1829 13.1833V18.8296C18.1829 18.9793 18.1234 19.123 18.0175 19.2288C17.9116 19.3347 17.768 19.3942 17.6183 19.3942Z" fill="#1B0333"/>
<path d="M20.253 19.3946H19.5002C19.3504 19.3946 19.2068 19.3352 19.1009 19.2293C18.995 19.1234 18.9355 18.9798 18.9355 18.83V10.5488C18.9355 10.399 18.995 10.2554 19.1009 10.1495C19.2068 10.0436 19.3504 9.98413 19.5002 9.98413H20.253C20.4028 9.98413 20.5464 10.0436 20.6523 10.1495C20.7582 10.2554 20.8176 10.399 20.8176 10.5488V18.83C20.8176 18.9798 20.7582 19.1234 20.6523 19.2293C20.5464 19.3352 20.4028 19.3946 20.253 19.3946Z" fill="#1B0333"/>
<path d="M14.9835 19.3944H14.2306C14.0809 19.3944 13.9373 19.3349 13.8314 19.229C13.7255 19.1232 13.666 18.9795 13.666 18.8298V8.66644C13.666 8.51669 13.7255 8.37307 13.8314 8.26718C13.9373 8.16129 14.0809 8.10181 14.2306 8.10181H14.9835C15.1332 8.10181 15.2769 8.16129 15.3827 8.26718C15.4886 8.37307 15.5481 8.51669 15.5481 8.66644V18.8298C15.5481 18.9795 15.4886 19.1232 15.3827 19.229C15.2769 19.3349 15.1332 19.3944 14.9835 19.3944Z" fill="#1B0333"/>
</g>
<defs>
<filter id="filter0_d_27_1413" x="0.000325203" y="-0.000103712" width="32.9242" height="32.9242" filterUnits="userSpaceOnUse" color-interpolation-filters="sRGB">
<feFlood flood-opacity="0" result="BackgroundImageFix"/>
<feColorMatrix in="SourceAlpha" type="matrix" values="0 0 0 0 0 0 0 0 0 0 0 0 0 0 0 0 0 0 127 0" result="hardAlpha"/>
<feOffset dy="2.81061"/>
<feGaussianBlur stdDeviation="2.20833"/>
<feColorMatrix type="matrix" values="0 0 0 0 0 0 0 0 0 0 0 0 0 0 0 0 0 0 0.02 0"/>
<feBlend mode="normal" in2="BackgroundImageFix" result="effect1_dropShadow_27_1413"/>
<feBlend mode="normal" in="SourceGraphic" in2="effect1_dropShadow_27_1413" result="shape"/>
</filter>
<clipPath id="clip0_27_1413">
<rect width="12.0455" height="12.0455" fill="white" transform="translate(9.90137 7.72559)"/>
</clipPath>
</defs>
</svg>
