<svg width="13" height="13" viewBox="0 0 13 13" fill="none" xmlns="http://www.w3.org/2000/svg">
<path d="M6.5 0.5C6.70412 0.499999 6.88772 0.624095 6.96387 0.813477L8.40918 4.41699L12.002 4.42871C12.2038 4.4295 12.385 4.5517 12.4619 4.73828C12.5388 4.92494 12.4963 5.13947 12.3535 5.28223L9.44336 8.19141L10.8926 11.8145C10.9723 12.0137 10.9163 12.2417 10.7529 12.3809C10.5895 12.52 10.3549 12.5391 10.1709 12.4287L6.5 10.2246L2.8291 12.4287C2.64506 12.5391 2.41047 12.52 2.24707 12.3809C2.08368 12.2417 2.02774 12.0137 2.10742 11.8145L3.55566 8.19141L0.646484 5.28223C0.503499 5.13924 0.460727 4.92413 0.538086 4.7373C0.615476 4.55047 0.797769 4.42871 1 4.42871H4.58984L6.03613 0.814453L6.06934 0.746094C6.15817 0.595322 6.3213 0.500099 6.5 0.5Z" stroke="white" stroke-linejoin="round"/>
</svg>
